<svg xmlns="http://www.w3.org/2000/svg" xmlns:xlink="http://www.w3.org/1999/xlink" width="48px" height="48px" preserveAspectRatio="xMidYMid meet" viewBox="0 0 1024 1024" style="-ms-transform: rotate(360deg); -webkit-transform: rotate(360deg); transform: rotate(360deg);"><path d="M960 640H640v320q0 27-18.5 45.5T576 1024H448q-27 0-45.5-19T384 960V640H64q-27 0-45.5-19T0 576V448q0-27 18.5-45.5T64 384h320V64q0-27 18.5-45.5T448 0h128q27 0 45.5 18.5T640 64v320h320q27 0 45.5 18.5T1024 448v128q0 26-18.5 45T960 640z" fill="black"/><rect x="0" y="0" width="1024" height="1024" fill="rgba(0, 0, 0, 0)" /></svg>